<?xml version="1.0" encoding="UTF-8" standalone="no"?><svg xmlns="http://www.w3.org/2000/svg" xmlns:xlink="http://www.w3.org/1999/xlink" contentStyleType="text/css" height="208px" preserveAspectRatio="none" style="width:1971px;height:208px;background:#FFFFFF;" version="1.1" viewBox="0 0 1971 208" width="1971px" zoomAndPan="magnify"><defs/><g><g id="elem_a"><ellipse cx="1759.1177" cy="142.6115" fill="#F1F1F1" rx="206.6177" ry="43.7235" style="stroke:#181818;stroke-width:0.5;"/><text fill="#000000" font-family="sans-serif" font-size="14" lengthAdjust="spacing" textLength="387" x="1565.6177" y="145.4582">Gérer les chantiers (date de début, de fin, adresse, …​)</text></g><g id="elem_b"><ellipse cx="1321.864" cy="142.3608" fill="#F1F1F1" rx="195.364" ry="41.4728" style="stroke:#181818;stroke-width:0.5;"/><text fill="#000000" font-family="sans-serif" font-size="14" lengthAdjust="spacing" textLength="364" x="1139.864" y="145.2075">Gérer les artisans (salaire horaire, coordonnées, …​)</text></g><g id="elem_c"><ellipse cx="804.0845" cy="142.3049" fill="#F1F1F1" rx="287.5845" ry="59.9169" style="stroke:#181818;stroke-width:0.5;"/><text fill="#000000" font-family="sans-serif" font-size="14" lengthAdjust="spacing" textLength="262" x="671.0845" y="128.8547">Gérer les artisans qui sont affectés à</text><text fill="#000000" font-family="sans-serif" font-size="14" lengthAdjust="spacing" textLength="349" x="629.5845" y="145.1516">quels chantiers (nombre d’heures effectuées par</text><text fill="#000000" font-family="sans-serif" font-size="14" lengthAdjust="spacing" textLength="498" x="557.0845" y="161.4485">tel artisan sur tel chantier, début et fin de mission sur un chantier, …​)</text></g><g id="elem_d"><ellipse cx="299.1088" cy="142.2098" fill="#F1F1F1" rx="182.1088" ry="38.8218" style="stroke:#181818;stroke-width:0.5;"/><text fill="#000000" font-family="sans-serif" font-size="14" lengthAdjust="spacing" textLength="246" x="174.1088" y="136.908">Calculer automatiquement la paye</text><text fill="#000000" font-family="sans-serif" font-size="14" lengthAdjust="spacing" textLength="303" x="149.6088" y="153.2049">d’un artisan donné pour un chantier donné</text></g><!--MD5=[4206b647878100e6066f92523e03a5d6]
entity Entreprise--><g id="elem_Entreprise"><ellipse cx="44" cy="112.888" fill="#F1F1F1" rx="8" ry="8" style="stroke:#181818;stroke-width:0.5;"/><path d="M44,120.888 L44,147.888 M31,128.888 L57,128.888 M44,147.888 L31,162.888 M44,147.888 L57,162.888 " fill="none" style="stroke:#181818;stroke-width:0.5;"/><text fill="#000000" font-family="sans-serif" font-size="14" lengthAdjust="spacing" textLength="76" x="6" y="177.3831">Entreprise</text></g><!--MD5=[7164c984a0067deca1ef070f0e721290]
link Entreprise to a--><g id="link_Entreprise_a"><path d="M64.1443,104.2974 C76.6595,84.908 94.7172,63.197 117.5,52.388 C187.77,19.049 1440.96,38.589 1517.5,52.388 C1569.65,61.79 1625.24,81.755 1669.92,100.498 " fill="none" id="Entreprise-to-a" style="stroke:#181818;stroke-width:1.0;"/><polygon fill="#181818" points="1674.76,102.5411,1668.0215,95.3583,1670.1529,100.5983,1664.9129,102.7297,1674.76,102.5411" style="stroke:#181818;stroke-width:1.0;"/></g><!--MD5=[652f4f86cbfaa74509299fda505d6e5b]
link Entreprise to b--><g id="link_Entreprise_b"><path d="M64.1443,104.2974 C76.6595,84.908 94.7172,63.197 117.5,52.388 C215.276,6 985.147,32.361 1091.5,52.388 C1142.93,62.072 1197.6,82.917 1240.79,102.109 " fill="none" id="Entreprise-to-b" style="stroke:#181818;stroke-width:1.0;"/><polygon fill="#181818" points="1245.46,104.1999,1238.8794,96.8721,1240.8963,102.1572,1235.6112,104.1741,1245.46,104.1999" style="stroke:#181818;stroke-width:1.0;"/></g><!--MD5=[545f4d4fb419a8ec5e42c2564d028392]
link Entreprise to c--><g id="link_Entreprise_c"><path d="M64.1443,104.2974 C76.6595,84.908 94.7172,63.197 117.5,52.388 C190.581,17.716 401.359,41.415 481.5,52.388 C536.734,59.951 595.846,74.478 648.178,89.691 " fill="none" id="Entreprise-to-c" style="stroke:#181818;stroke-width:1.0;"/><polygon fill="#181818" points="653.221,91.165,645.7045,84.8009,648.4218,89.7624,643.4603,92.4796,653.221,91.165" style="stroke:#181818;stroke-width:1.0;"/></g><!--MD5=[122276d91f1f72c7135fb80cb99a348f]
link Entreprise to d--><g id="link_Entreprise_d"><path d="M82.3496,142.388 C92.0786,142.388 101.8077,142.388 111.537,142.388 " fill="none" id="Entreprise-to-d" style="stroke:#181818;stroke-width:1.0;"/><polygon fill="#181818" points="116.624,142.388,107.624,138.388,111.624,142.388,107.624,146.388,116.624,142.388" style="stroke:#181818;stroke-width:1.0;"/></g><!--MD5=[fd000eaee1bf3474b6367fe0a4e8eb83]
@startuml
usecase a as "Gérer les chantiers (date de début, de fin, adresse, …​)"
usecase b as "Gérer les artisans (salaire horaire, coordonnées, …​)"
usecase c as "Gérer les artisans qui sont affectés à \n quels chantiers (nombre d’heures effectuées par \n tel artisan sur tel chantier, début et fin de mission sur un chantier, …​)"
usecase d as "Calculer automatiquement la paye \n d’un artisan donné pour un chantier donné"

actor Entreprise 

Entreprise -> a
Entreprise -> b
Entreprise -> c
Entreprise -> d
@enduml

PlantUML version 1.2022.3beta2(Unknown compile time)
(GPL source distribution)
Java Runtime: Java(TM) SE Runtime Environment
JVM: Java HotSpot(TM) 64-Bit Server VM
Default Encoding: UTF-8
Language: en
Country: US
--></g></svg>